<?xml version="1.0" standalone="no"?>
<!DOCTYPE svg PUBLIC "-//W3C//DTD SVG 20010904//EN"
 "http://www.w3.org/TR/2001/REC-SVG-20010904/DTD/svg10.dtd">
<svg version="1.0" xmlns="http://www.w3.org/2000/svg"
 width="128.000000pt" height="128.000000pt" viewBox="0 0 128.000000 128.000000"
 preserveAspectRatio="xMidYMid meet">
<metadata>
Created by potrace 1.11, written by Peter Selinger 2001-2013
</metadata>
<g transform="translate(0.000000,128.000000) scale(0.100000,-0.100000)"
fill="#000000" stroke="none">
<path d="M233 1218 c-17 -4 -41 -21 -52 -37 -21 -28 -21 -40 -21 -538 0 -386
3 -514 13 -533 28 -57 41 -58 475 -56 298 1 403 5 419 14 53 29 53 32 53 574
0 382 -3 509 -13 528 -28 56 -43 58 -460 57 -210 0 -396 -4 -414 -9z"/>
</g>
</svg>
